# xmcd
#
# Track frame offsets:
#	150
#	14465
#	31306
#	43071
#	47933
#	59645
#
# Disc length: 4505 seconds
#
# Revision: 0
# Processed by: cddbd v1.5.1PL0 Copyright (c) Steve Scherf et al.
# Submitted via: dBpowerAMP V4.0
#
DISCID=51119706
DTITLE=pink floyd &syd barrett - bbc sessions
DYEAR=2005
DGENRE=Classic Rock
TTITLE0=Terrapin
TTITLE1=Dminoes
TTITLE2=baby lemonade
TTITLE3=an efferversing elefant
TTITLE4=two of a kind
TTITLE5=complete bbc session
EXTD=bbc sessions
EXTT0=
EXTT1=
EXTT2=
EXTT3=
EXTT4=
EXTT5=
PLAYORDER=
